<svg width="38" height="38" viewBox="0 0 38 38" fill="none" xmlns="http://www.w3.org/2000/svg">
<g opacity="0.5">
<path d="M14.4986 32.888V28.0324C14.4986 26.7973 15.5054 25.7938 16.7529 25.7855H21.3226C22.576 25.7855 23.5921 26.7914 23.5921 28.0324V28.0324V32.9031C23.5919 33.9517 24.4372 34.8087 25.4962 34.8333H28.5426C31.5795 34.8333 34.0413 32.396 34.0413 29.3895V29.3895V15.5765C34.0251 14.3938 33.4642 13.2831 32.5181 12.5606L22.0994 4.25169C20.2742 2.80494 17.6795 2.80494 15.8543 4.25169L5.48121 12.5757C4.53158 13.2952 3.9697 14.4078 3.95801 15.5916V29.3895C3.95801 32.396 6.41989 34.8333 9.45678 34.8333H12.5032C13.5884 34.8333 14.4681 33.9624 14.4681 32.888V32.888" stroke="white" stroke-width="1.5" stroke-linecap="round" stroke-linejoin="round"/>
</g>
</svg>
