<svg width="230" height="812" viewBox="0 0 230 812" fill="none" xmlns="http://www.w3.org/2000/svg">
<g opacity="0.05" clip-path="url(#clip0_140_1246)">
<path d="M79.0096 12.6602C107.778 23.6855 106.251 46.8021 106.251 46.8021C124.453 39.4134 118.701 12.7743 118.701 12.7743C139.559 11.7633 152.899 -3.4258 157.733 -10L89.0395 -10C88.8255 3.98461 79.0096 12.6602 79.0096 12.6602Z" fill="white"/>
<path d="M27.5767 7.38581C35.6117 -0.573168 45.4103 -6.52929 56.1787 -10L5.36444 -10C10.8073 3.34626 27.5767 7.38581 27.5767 7.38581Z" fill="white"/>
<path d="M22.3553 112.782C22.3553 112.782 55.5255 123.151 56.841 88.1133C56.841 88.1133 43.8302 102.7 28.492 91.9059C13.1538 81.1116 20.0191 48.9873 37.7716 47.6759C37.7716 47.6759 34.0953 78.5437 61.9138 75.1079C61.9138 75.1079 54.7362 69.276 54.1377 63.4543C54.1377 63.4543 66.0989 60.6206 70.884 70.778C75.669 80.9354 68.7777 94.2267 68.7777 94.2267C68.7777 94.2267 82.5344 94.9806 88.8142 82.7277C95.0941 70.4747 82.0877 61.3644 82.0877 61.3644C82.0877 61.3644 89.7149 52.699 85.2276 39.7008C80.7404 26.7026 67.5908 26.4137 67.5908 26.4137C67.5908 26.4137 72.3744 38.8155 62.3561 40.6034C52.3378 42.3914 42.467 29.5477 50.8387 18.1945C59.2104 6.84134 75.5418 -2.09131 75.5418 -2.09131C75.5418 -2.09131 12.5654 6.80956 4.82254 50.3102C-2.92031 93.8108 15.049 107.094 -0.000117192 126.217C-0.000117192 126.21 18.1166 128.987 22.3553 112.782Z" fill="white"/>
<path d="M150.991 114.053C122.223 103.026 123.75 79.9099 123.75 79.9099C105.548 87.3001 111.3 113.938 111.3 113.938C90.6646 114.937 77.385 129.816 72.4221 136.501L140.966 136.501C141.274 122.644 150.991 114.053 150.991 114.053Z" fill="white"/>
<path d="M202.425 119.328C194.553 127.122 184.988 132.999 174.474 136.501L224.548 136.501C219.01 123.325 202.425 119.328 202.425 119.328Z" fill="white"/>
<path d="M147.909 65.3548C147.909 65.3548 140.282 74.0203 144.769 87.0185C149.257 100.017 162.413 100.306 162.413 100.306C162.413 100.306 157.628 87.9024 167.647 86.1144C177.665 84.3264 187.536 97.1715 179.161 108.523C170.787 119.875 154.458 128.818 154.458 128.818C154.458 128.818 217.434 119.917 225.179 76.4149C232.923 32.9128 214.951 19.6272 230 0.508306C230 0.508306 211.885 -2.26898 207.646 13.9398C207.646 13.9398 174.476 3.57299 173.16 38.6089C173.16 38.6089 186.171 24.022 201.509 34.8163C216.848 45.6106 209.981 77.7248 192.236 79.0362C192.236 79.0362 195.91 48.1683 168.093 51.6042C168.093 51.6042 175.271 57.4361 175.869 63.2578C175.869 63.2578 163.907 66.0914 159.123 55.9341C154.34 45.7767 161.218 32.4868 161.218 32.4868C161.218 32.4868 147.461 31.7329 141.181 43.98C134.901 56.2272 147.909 65.3548 147.909 65.3548Z" fill="white"/>
<path d="M79.0096 260.339C107.778 249.314 106.251 226.197 106.251 226.197C124.453 233.586 118.701 260.224 118.701 260.224C139.559 261.235 152.899 276.424 157.733 282.999L89.0395 282.999C88.8255 269.015 79.0096 260.339 79.0096 260.339Z" fill="white"/>
<path d="M27.5767 265.614C35.6114 273.574 45.41 279.531 56.1787 283.002L5.36444 283.002C10.8073 269.653 27.5767 265.614 27.5767 265.614Z" fill="white"/>
<path d="M22.3553 160.217C22.3553 160.217 55.5255 149.849 56.841 184.886C56.841 184.886 43.8303 170.299 28.492 181.094C13.1538 191.888 20.0191 224.012 37.7716 225.322C37.7716 225.322 34.0953 194.454 61.9138 197.89C61.9138 197.89 54.7362 203.724 54.1377 209.545C54.1377 209.545 66.0989 212.377 70.884 202.221C75.669 192.066 68.7777 178.773 68.7777 178.773C68.7777 178.773 82.5344 178.019 88.8142 190.27C95.0941 202.522 82.0877 211.635 82.0877 211.635C82.0877 211.635 89.7149 220.301 85.2276 233.299C80.7404 246.297 67.5908 246.586 67.5908 246.586C67.5908 246.586 72.3744 234.184 62.3561 232.396C52.3378 230.608 42.4685 243.452 50.8416 254.805C59.2148 266.158 75.5447 275.098 75.5447 275.098C75.5447 275.098 12.5683 266.197 4.82543 222.697C-2.91741 179.196 15.0519 165.913 0.00278251 146.79C-0.000108768 146.79 18.1167 144.011 22.3553 160.217Z" fill="white"/>
<path d="M150.991 158.942C122.223 169.967 123.75 193.084 123.75 193.084C105.548 185.695 111.3 159.057 111.3 159.057C90.6646 158.058 77.385 143.179 72.4221 136.493L140.966 136.493C141.274 150.356 150.991 158.942 150.991 158.942Z" fill="white"/>
<path d="M202.425 153.672C194.553 145.877 184.988 140 174.474 136.497L224.548 136.497C219.01 149.673 202.425 153.672 202.425 153.672Z" fill="white"/>
<path d="M147.909 207.652C147.909 207.652 140.282 198.986 144.769 185.988C149.257 172.99 162.413 172.701 162.413 172.701C162.413 172.701 157.628 185.103 167.647 186.891C177.665 188.679 187.536 175.84 179.161 164.482C170.787 153.124 154.458 144.187 154.458 144.187C154.458 144.187 217.434 153.09 225.179 196.59C232.923 240.091 214.951 253.372 230 272.496C230 272.496 211.885 275.274 207.646 259.064C207.646 259.064 174.476 269.432 173.16 234.396C173.16 234.396 186.171 248.983 201.509 238.188C216.848 227.392 209.981 195.269 192.23 193.959C192.23 193.959 195.905 224.827 168.088 221.39C168.088 221.39 175.265 215.559 175.864 209.736C175.864 209.736 163.901 206.904 159.117 217.061C154.334 227.219 161.212 240.508 161.212 240.508C161.212 240.508 147.454 241.262 141.174 229.011C134.894 216.759 147.909 207.652 147.909 207.652Z" fill="white"/>
<path d="M79.0096 305.66C107.778 316.685 106.251 339.803 106.251 339.803C124.453 332.413 118.701 305.775 118.701 305.775C139.559 304.764 152.899 289.575 157.733 283L89.0395 283C88.8255 296.984 79.0096 305.66 79.0096 305.66Z" fill="white"/>
<path d="M27.5767 300.385C35.6124 292.428 45.4108 286.473 56.1787 283.002L5.36444 283.002C10.8073 296.346 27.5767 300.385 27.5767 300.385Z" fill="white"/>
<path d="M22.3553 405.782C22.3553 405.782 55.5255 416.15 56.841 381.113C56.841 381.113 43.8302 395.7 28.492 384.905C13.1538 374.111 20.0191 341.987 37.7716 340.677C37.7716 340.677 34.0953 371.545 61.9138 368.109C61.9138 368.109 54.7362 362.275 54.1377 356.454C54.1377 356.454 66.0989 353.622 70.884 363.777C75.669 373.933 68.7777 387.226 68.7777 387.226C68.7777 387.226 82.5344 387.98 88.8142 375.729C95.0941 363.477 82.0877 354.364 82.0877 354.364C82.0877 354.364 89.7149 345.698 85.2276 332.7C80.7404 319.702 67.5908 319.413 67.5908 319.413C67.5908 319.413 72.3744 331.815 62.3561 333.604C52.3378 335.394 42.4685 322.547 50.8416 311.195C59.2148 299.844 75.5447 290.901 75.5447 290.901C75.5447 290.901 12.5683 299.802 4.82543 343.304C-2.91742 386.806 15.0519 400.086 0.00277691 419.209C-0.000114369 419.209 18.1166 421.988 22.3553 405.782Z" fill="white"/>
<path d="M150.991 407.053C122.223 396.028 123.75 372.911 123.75 372.911C105.548 380.3 111.3 406.937 111.3 406.937C90.6646 407.938 77.385 422.817 72.4221 429.502L140.966 429.502C141.274 415.643 150.991 407.053 150.991 407.053Z" fill="white"/>
<path d="M202.425 412.327C194.553 420.122 184.988 425.999 174.474 429.502L224.548 429.502C219.01 416.326 202.425 412.327 202.425 412.327Z" fill="white"/>
<path d="M147.909 358.347C147.909 358.347 140.282 367.013 144.769 380.011C149.257 393.009 162.413 393.298 162.413 393.298C162.413 393.298 157.628 380.896 167.647 379.108C177.665 377.32 187.536 390.165 179.161 401.517C170.787 412.869 154.458 421.812 154.458 421.812C154.458 421.812 217.434 412.911 225.179 369.409C232.923 325.907 214.951 312.627 230 293.503C230 293.503 211.885 290.726 207.646 306.935C207.646 306.935 174.476 296.567 173.16 331.604C173.16 331.604 186.171 317.017 201.509 327.812C216.848 338.606 209.981 370.73 192.23 372.041C192.23 372.041 195.905 341.172 168.088 344.61C168.088 344.61 175.265 350.441 175.864 356.263C175.864 356.263 163.901 359.095 159.117 348.939C154.334 338.783 161.212 325.491 161.212 325.491C161.212 325.491 147.454 324.737 141.174 336.988C134.894 349.24 147.909 358.347 147.909 358.347Z" fill="white"/>
<path d="M79.0096 553.34C107.778 542.313 106.251 519.197 106.251 519.197C124.453 526.586 118.701 553.225 118.701 553.225C139.559 554.236 152.899 569.425 157.733 575.999L89.0395 575.999C88.8255 562.014 79.0096 553.34 79.0096 553.34Z" fill="white"/>
<path d="M27.5767 558.615C35.6121 566.573 45.4106 572.528 56.1787 575.999L5.36444 575.999C10.8073 562.653 27.5767 558.615 27.5767 558.615Z" fill="white"/>
<path d="M22.3553 453.217C22.3553 453.217 55.5255 442.848 56.841 477.886C56.841 477.886 43.8303 463.299 28.492 474.093C13.1538 484.887 20.0191 517.012 37.7716 518.323C37.7716 518.323 34.0953 487.455 61.9138 490.891C61.9138 490.891 54.7362 496.723 54.1377 502.545C54.1377 502.545 66.0989 505.378 70.884 495.221C75.669 485.064 68.7777 471.772 68.7777 471.772C68.7777 471.772 82.5344 471.018 88.8142 483.271C95.0941 495.524 82.0877 504.635 82.0877 504.635C82.0877 504.635 89.7149 513.3 85.2276 526.298C80.7404 539.296 67.5908 539.585 67.5908 539.585C67.5908 539.585 72.3744 527.182 62.3561 525.394C52.3378 523.606 42.4685 536.45 50.8416 547.803C59.2148 559.156 75.5418 568.096 75.5418 568.096C75.5418 568.096 12.5654 559.195 4.82254 515.695C-2.92031 472.194 15.049 458.911 -0.000111592 439.788C-0.000111592 439.789 18.1167 437.012 22.3553 453.217Z" fill="white"/>
<path d="M150.991 451.946C122.223 462.973 123.75 486.089 123.75 486.089C105.548 478.7 111.3 452.061 111.3 452.061C90.6646 451.062 77.385 436.183 72.4221 429.498L140.966 429.498C141.274 443.357 150.991 451.946 150.991 451.946Z" fill="white"/>
<path d="M202.425 446.671C194.553 438.877 184.988 433 174.474 429.498L224.548 429.498C219.01 442.674 202.425 446.671 202.425 446.671Z" fill="white"/>
<path d="M147.909 500.65C147.909 500.65 140.282 491.984 144.769 478.986C149.257 465.988 162.413 465.699 162.413 465.699C162.413 465.699 157.628 478.102 167.647 479.89C177.665 481.678 187.536 468.833 179.161 457.482C170.787 446.13 154.458 437.187 154.458 437.187C154.458 437.187 217.434 446.089 225.179 489.59C232.923 533.091 214.951 546.373 230 565.497C230 565.497 211.885 568.274 207.646 552.065C207.646 552.065 174.476 562.433 173.16 527.396C173.16 527.396 186.171 541.983 201.509 531.188C216.848 520.394 209.981 488.27 192.23 486.959C192.23 486.959 195.905 517.826 168.088 514.39C168.088 514.39 175.265 508.559 175.864 502.737C175.864 502.737 163.901 499.903 159.117 510.061C154.334 520.218 161.212 533.509 161.212 533.509C161.212 533.509 147.454 534.262 141.174 522.01C134.894 509.759 147.909 500.65 147.909 500.65Z" fill="white"/>
<path d="M79.0096 598.659C107.778 609.686 106.251 632.803 106.251 632.803C124.453 625.414 118.701 598.775 118.701 598.775C139.559 597.764 152.899 582.575 157.733 575.999L89.0395 575.999C88.8255 589.985 79.0096 598.659 79.0096 598.659Z" fill="white"/>
<path d="M27.5767 593.385C35.6125 585.427 45.4108 579.471 56.1787 575.999L5.36444 575.999C10.8073 589.347 27.5767 593.385 27.5767 593.385Z" fill="white"/>
<path d="M22.3553 698.783C22.3553 698.783 55.5255 709.151 56.841 674.114C56.841 674.114 43.8302 688.701 28.492 677.906C13.1538 667.112 20.0191 634.988 37.7716 633.676C37.7716 633.676 34.0953 664.544 61.9138 661.108C61.9138 661.108 54.7362 655.276 54.1377 649.455C54.1377 649.455 66.0989 646.621 70.884 656.778C75.669 666.936 68.7777 680.227 68.7777 680.227C68.7777 680.227 82.5344 680.98 88.8142 668.728C95.0941 656.477 82.0877 647.365 82.0877 647.365C82.0877 647.365 89.7149 638.699 85.2276 625.701C80.7404 612.703 67.5908 612.414 67.5908 612.414C67.5908 612.414 72.3744 624.817 62.3561 626.605C52.3378 628.393 42.467 615.548 50.8387 604.202C59.2104 592.856 75.5418 583.909 75.5418 583.909C75.5418 583.909 12.5654 592.81 4.82254 636.311C-2.92031 679.811 15.049 693.093 -0.000117192 712.217C-0.000117192 712.21 18.1166 714.987 22.3553 698.783Z" fill="white"/>
<path d="M150.991 700.054C122.223 689.027 123.75 665.91 123.75 665.91C105.548 673.299 111.3 699.938 111.3 699.938C90.6646 700.938 77.385 715.816 72.4221 722.502L140.966 722.502C141.274 708.643 150.991 700.054 150.991 700.054Z" fill="white"/>
<path d="M202.425 705.328C194.552 713.122 184.988 718.998 174.474 722.502L224.548 722.502C219.01 709.326 202.425 705.328 202.425 705.328Z" fill="white"/>
<path d="M147.909 651.348C147.909 651.348 140.282 660.014 144.769 673.012C149.257 686.01 162.413 686.299 162.413 686.299C162.413 686.299 157.628 673.896 167.647 672.108C177.665 670.32 187.536 683.163 179.161 694.517C170.787 705.87 154.458 714.811 154.458 714.811C154.458 714.811 217.434 705.91 225.179 662.405C232.923 618.9 214.951 605.622 230 586.499C230 586.499 211.885 583.721 207.646 599.93C207.646 599.93 174.476 589.562 173.16 624.599C173.16 624.599 186.171 610.012 201.509 620.807C216.848 631.601 209.981 663.725 192.23 665.037C192.23 665.037 195.905 634.169 168.088 637.605C168.088 637.605 175.265 643.437 175.864 649.258C175.864 649.258 163.901 652.092 159.117 641.934C154.334 631.777 161.212 618.486 161.212 618.486C161.212 618.486 147.454 617.732 141.174 629.983C134.894 642.235 147.909 651.348 147.909 651.348Z" fill="white"/>
<path d="M22.3553 746.216C22.3553 746.216 55.5255 735.849 56.841 770.885C56.841 770.885 43.8303 756.298 28.492 767.093C13.1538 777.887 20.0191 810.011 37.7716 811.323C37.7716 811.323 34.0953 780.455 61.9138 783.891C61.9138 783.891 54.7362 789.723 54.1377 795.546C54.1377 795.546 66.0989 798.378 70.884 788.221C75.669 778.063 68.7777 764.772 68.7777 764.772C68.7777 764.772 82.5344 764.019 88.8142 776.271C95.0941 788.522 82.0877 797.634 82.0877 797.634C82.0877 797.634 89.7149 806.3 85.2276 819.298C80.7404 832.296 67.5908 832.585 67.5908 832.585C67.5908 832.585 72.3744 820.183 62.3561 818.394C52.3378 816.604 42.4685 829.451 50.8416 840.803C59.2148 852.154 75.5447 861.097 75.5447 861.097C75.5447 861.097 12.5683 852.195 4.82543 808.694C-2.91741 765.194 15.0519 751.911 0.00278251 732.789C-0.000108768 732.79 18.1167 730.012 22.3553 746.216Z" fill="white"/>
<path d="M150.991 744.947C122.223 755.972 123.75 779.089 123.75 779.089C105.548 771.7 111.3 745.061 111.3 745.061C90.6646 744.061 77.385 729.183 72.4221 722.497L140.966 722.497C141.274 736.351 150.991 744.947 150.991 744.947Z" fill="white"/>
<path d="M202.425 739.672C194.553 731.878 184.988 726.001 174.474 722.497L224.548 722.497C219.01 735.673 202.425 739.672 202.425 739.672Z" fill="white"/>
<path d="M147.909 793.651C147.909 793.651 140.282 784.985 144.769 771.987C149.257 758.989 162.413 758.7 162.413 758.7C162.413 758.7 157.628 771.102 167.647 772.89C177.665 774.678 187.536 761.834 179.161 750.481C170.787 739.128 154.458 730.188 154.458 730.188C154.458 730.188 217.434 739.089 225.179 782.589C232.923 826.09 214.951 839.373 230 858.496C230 858.496 211.885 861.275 207.646 845.065C207.646 845.065 174.476 855.433 173.16 820.395C173.16 820.395 186.171 834.982 201.509 824.188C216.848 813.394 209.981 781.274 192.236 779.967C192.236 779.967 195.91 810.834 168.093 807.399C168.093 807.399 175.271 801.567 175.869 795.745C175.869 795.745 163.907 792.913 159.123 803.069C154.34 813.225 161.218 826.518 161.218 826.518C161.218 826.518 147.46 827.271 141.18 815.018C134.9 802.766 147.909 793.651 147.909 793.651Z" fill="white"/>
</g>
<defs>
<clipPath id="clip0_140_1246">
<rect width="879" height="230" fill="white" transform="translate(230 -10) rotate(90)"/>
</clipPath>
</defs>
</svg>
